<?xml version="1.0" standalone="no"?>
<!DOCTYPE svg PUBLIC "-//W3C//DTD SVG 20010904//EN"
 "http://www.w3.org/TR/2001/REC-SVG-20010904/DTD/svg10.dtd">
<svg version="1.0" xmlns="http://www.w3.org/2000/svg"
 width="85.000000pt" height="76.000000pt" viewBox="0 0 85.000000 76.000000"
 preserveAspectRatio="xMidYMid meet">

<g transform="translate(0.000000,76.000000) scale(0.100000,-0.100000)"
fill="#000000" stroke="none">
<path d="M357 693 c-15 -15 -6 -41 17 -47 40 -10 25 -36 -33 -56 -61 -20 -86
-42 -78 -64 11 -27 35 -29 87 -7 27 11 64 21 82 21 52 0 131 -44 164 -92 25
-36 29 -50 29 -112 0 -63 -3 -76 -30 -113 -100 -140 -320 -104 -360 59 -6 24
-4 28 14 28 12 0 21 6 21 14 0 25 -64 126 -80 126 -15 0 -80 -105 -80 -129 0
-6 11 -11 25 -11 17 0 25 -6 25 -17 0 -10 11 -41 24 -68 78 -169 283 -215 421
-93 97 86 123 210 66 323 -32 62 -32 76 -3 68 10 -2 24 3 32 12 11 13 9 20
-16 46 -35 36 -68 36 -70 -1 -1 -14 -2 -28 -3 -32 0 -4 -17 4 -37 17 -20 13
-52 27 -71 31 -28 5 -33 10 -31 28 2 11 9 20 15 19 17 -3 34 22 27 41 -5 13
-21 16 -78 16 -40 0 -76 -3 -79 -7z"/>
<path d="M393 366 c-27 -24 -27 -26 -13 -53 9 -17 26 -29 40 -31 14 -2 42 -17
63 -34 52 -40 68 -24 27 27 -16 21 -30 48 -30 61 0 20 -32 54 -52 54 -4 0 -20
-11 -35 -24z"/>
</g>
</svg>
